#!OML:ASF I:\Actors\actors\Patient Classification 2\Patient 1\Session 1\actor1.ASF
:FULLY-SPECIFIED
:DEGREES
117
root -0.718764 18.7019 5.62581 0.330858 -2.92896 -1.52369
lowerback 2.51247 0.0953106 -0.313518
upperback -1.02457 0.144634 1.22452
thorax -2.46385 0.0871589 1.42619
lowerneck -13.1832 -2.92619 -1.84204
upperneck 23.7703 -4.6766 3.79573
head 9.84666 -1.91323 1.05579
rclavicle 3.63403e-016 -2.38542e-015
rhumerus -29.7 15.3545 -87.9006
rradius 95.1695
rwrist -47.0231
rhand -4.51906 -42.1503
rfingers 7.12502
rthumb 21.2554 -71.0048
lclavicle 3.63403e-016 -2.38542e-015
lhumerus -28.3774 -44.0699 107.68
lradius 81.0016
lwrist 21.9673
lhand -11.0876 -21.5676
lfingers 7.12502
lthumb 14.9361 7.87388
rfemur 7.39253 0.641018 15.3656
rtibia 1.74931e-014
rfoot -14.7769 -8.43727
rtoes -3.28873
lfemur -2.80505 -6.25428 -12.8175
ltibia 20.1902
lfoot -22.1971 14.7519
ltoes -55.4918
118
root -0.723561 18.7042 5.61819 0.391734 -2.82162 -1.44786
lowerback 2.51056 -0.0830944 -0.137053
upperback -0.996177 -0.0885757 1.17806
thorax -2.42745 -0.0326415 1.29002
lowerneck -13.3086 -2.91249 -1.76064
upperneck 23.5143 -4.68562 3.87713
head 9.78012 -1.90311 1.06714
rclavicle -1.36199e-015 1.19271e-015
rhumerus -28.734 14.8823 -88.1128
rradius 95.6858
rwrist -47.2908
rhand -4.98182 -43.1434
rfingers 7.12502
rthumb 20.8109 -72.0474
lclavicle -1.36199e-015 1.19271e-015
lhumerus -25.9613 -45.6563 106.813
lradius 81.4226
lwrist 22.6032
lhand -11.4287 -21.8733
lfingers 7.12502
lthumb 14.6074 7.59223
rfemur 7.31715 0.528264 15.2964
rtibia 0
rfoot -14.7719 -8.4357
rtoes -3.45248
lfemur -2.93065 -6.14617 -12.848
ltibia 20.1757
lfoot -22.0239 14.6101
ltoes -55.6028
119
root -0.731567 18.7051 5.6086 0.355677 -2.90271 -1.37736
lowerback 2.63324 -0.247244 -0.0247599
upperback -0.947775 -0.303743 1.16137
thorax -2.44226 -0.141998 1.22019
lowerneck -13.4891 -2.85309 -1.66297
upperneck 23.2846 -4.63018 3.93861
head 9.73057 -1.86302 1.07618
rclavicle 3.27373e-015 -1.61016e-014
rhumerus -27.5113 14.717 -88.168
rradius 95.9144
rwrist -47.5586
rhand -4.9186 -43.5772
rfingers 7.12502
rthumb 20.8716 -72.4744
lclavicle 3.27373e-015 -1.61016e-014
lhumerus -23.4291 -46.9457 105.665
lradius 81.8474
lwrist 22.9487
lhand -11.5018 -21.9747
lfingers 7.12502
lthumb 14.5371 7.496
rfemur 7.30957 0.609984 15.2479
rtibia -1.59028e-015
rfoot -14.7219 -8.46352
rtoes -3.60848
lfemur -2.89469 -5.9917 -12.8936
ltibia 20.1501
lfoot -21.9638 14.5424
ltoes -55.6319
120
root -0.736261 18.7055 5.59842 0.32724 -2.88815 -1.36208
lowerback 2.75846 -0.464682 0.139694
upperback -0.923378 -0.586358 1.19403
thorax -2.48288 -0.285254 1.17583
lowerneck -13.6538 -2.78926 -1.52641
upperneck 23.0629 -4.55579 3.90904
head 9.67701 -1.82126 1.04969
rclavicle 1.02343e-014 -1.98785e-016
rhumerus -26.1561 14.9978 -87.931
rradius 95.9981
rwrist -47.7844
rhand -4.92087 -43.4213
rfingers 7.12502
rthumb 20.8694 -72.3188
lclavicle 1.02343e-014 -1.98785e-016
lhumerus -20.6832 -48.1822 104.315
lradius 82.0852
lwrist 23.1305
lhand -11.5601 -22.0916
lfingers 7.12502
lthumb 14.4809 7.38309
rfemur 7.30976 0.59653 15.2522
rtibia 1.59028e-014
rfoot -14.6972 -8.49993
rtoes -3.53176
lfemur -2.89791 -5.8756 -12.8738
ltibia 20.1348
lfoot -21.8943 14.4211
ltoes -55.6124
121
root -0.735571 18.7071 5.59005 0.379201 -2.78356 -1.37132
lowerback 2.81234 -0.72237 0.322917
upperback -0.940295 -0.920082 1.29634
thorax -2.52544 -0.453688 1.19533
lowerneck -13.8423 -2.74323 -1.47789
upperneck 22.8849 -4.48377 3.86426
head 9.64529 -1.78904 1.0323
rclavicle 1.2424e-014 -3.97569e-016
rhumerus -24.8208 15.6126 -87.4322
rradius 96.0713
rwrist -47.8032
rhand -4.94646 -43.1419
rfingers 7.12502
rthumb 20.8449 -72.0421
lclavicle 1.2424e-014 -3.97569e-016
lhumerus -17.5555 -49.4396 102.725
lradius 82.0424
lwrist 23.3713
lhand -11.6986 -22.2415
lfingers 7.12502
lthumb 14.3474 7.24272
rfemur 7.23962 0.488777 15.2645
rtibia 1.27222e-014
rfoot -14.6845 -8.53695
rtoes -3.36244
lfemur -3.01418 -5.85369 -12.8351
ltibia 20.1304
lfoot -21.8182 14.3261
ltoes -55.5752
122
root -0.732236 18.7084 5.58609 0.417745 -2.77049 -1.36268
lowerback 2.85319 -0.945799 0.441842
upperback -0.956117 -1.2089 1.46372
thorax -2.55847 -0.598246 1.31588
lowerneck -13.9956 -2.72713 -1.50619
upperneck 22.6048 -4.41813 3.77118
head 9.57158 -1.77363 1.01067
rclavicle -1.80086e-014 -6.55989e-015
rhumerus -23.4459 16.2479 -86.7836
rradius 96.0982
rwrist -47.4517
rhand -5.39364 -42.7594
rfingers 7.12502
rthumb 20.4152 -71.7062
lclavicle -1.80086e-014 -6.55989e-015
lhumerus -14.1154 -50.678 100.898
lradius 81.8662
lwrist 23.5541
lhand -12.3205 -21.6082
lfingers 7.12502
lthumb 13.7481 7.91755
rfemur 7.17642 0.474855 15.2428
rtibia -2.22639e-014
rfoot -14.6649 -8.54856
rtoes -3.34214
lfemur -3.08325 -5.91258 -12.855
ltibia 20.1421
lfoot -21.8203 14.3759
ltoes -55.531
123
root -0.730135 18.7083 5.58316 0.391218 -2.92844 -1.34051
lowerback 2.94947 -1.10949 0.453506
upperback -0.962075 -1.41937 1.7143
thorax -2.6089 -0.70131 1.57977
lowerneck -14.0764 -2.77238 -1.65632
upperneck 22.2373 -4.39115 3.62041
head 9.45621 -1.79477 0.985703
rclavicle 1.0256e-014 -2.38542e-015
rhumerus -21.9048 16.366 -85.7868
rradius 96.2569
rwrist -48.1551
rhand -5.91528 -44.2918
rfingers 7.12502
rthumb 19.9138 -73.2915
lclavicle 1.0256e-014 -2.38542e-015
lhumerus -10.5747 -51.7616 98.9388
lradius 81.6357
lwrist 23.9318
lhand -13.6513 -19.9718
lfingers 7.12502
lthumb 12.4653 9.63643
rfemur 7.16136 0.636378 15.2093
rtibia -3.18055e-015
rfoot -14.6507 -8.54536
rtoes -3.15823
lfemur -3.03913 -5.85392 -12.9016
ltibia 20.1565
lfoot -21.8757 14.4543
ltoes -55.5144
124
root -0.727542 18.7086 5.58048 0.363603 -3.10595 -1.34921
lowerback 3.02375 -1.28681 0.479127
upperback -0.961731 -1.64639 2.01951
thorax -2.63707 -0.812514 1.89301
lowerneck -14.1629 -2.85485 -1.89739
upperneck 21.8672 -4.39122 3.45451
head 9.34411 -1.83696 0.967604
rclavicle -2.17902e-014 -7.55382e-015
rhumerus -20.393 16.6154 -84.9191
rradius 96.1817
rwrist -47.0755
rhand -7.62024 -42.5373
rfingers 7.12502
rthumb 18.2742 -71.6989
lclavicle -2.17902e-014 -7.55382e-015
lhumerus -7.09006 -52.4719 96.9086
lradius 81.2738
lwrist 24.7566
lhand -14.9895 -18.4044
lfingers 7.12502
lthumb 11.1749 11.278
rfemur 7.15429 0.816797 15.2135
rtibia -1.43125e-014
rfoot -14.6374 -8.55829
rtoes -3.01221
lfemur -2.97835 -5.72829 -12.9039
ltibia 20.1538
lfoot -21.9162 14.4736
ltoes -55.4879
125
root -0.720521 18.7098 5.58065 0.364375 -3.22588 -1.29276
lowerback 3.03897 -1.49509 0.586198
upperback -0.967518 -1.91427 2.23809
thorax -2.64022 -0.946231 2.07247
lowerneck -14.3513 -2.98155 -2.02654
upperneck 21.5424 -4.46057 3.19971
head 9.26469 -1.9094 0.890713
rclavicle 1.55052e-014 -3.18055e-015
rhumerus -18.7426 16.128 -84.1498
rradius 96.1967
rwrist -47.3004
rhand -8.55158 -41.661
rfingers 7.12502
rthumb 17.378 -70.9041
lclavicle 1.55052e-014 -3.18055e-015
lhumerus -3.77922 -52.8891 94.8074
lradius 80.7589
lwrist 25.6386
lhand -15.587 -17.7811
lfingers 7.12502
lthumb 10.5986 11.9316
rfemur 7.13195 0.938345 15.1346
rtibia 1.59028e-014
rfoot -14.6079 -8.60386
rtoes -3.27532
lfemur -2.9403 -5.59967 -12.9861
ltibia 20.1311
lfoot -21.8962 14.4648
ltoes -55.5329
126
root -0.711176 18.7114 5.58231 0.396665 -3.33596 -1.11359
lowerback 3.00887 -1.701 0.702558
upperback -0.982409 -2.18177 2.35486
thorax -2.63034 -1.08073 2.14059
lowerneck -14.7436 -3.15921 -2.0011
upperneck 21.3643 -4.59602 2.75108
head 9.26729 -2.0171 0.710596
rclavicle 2.16489e-014 9.54166e-015
rhumerus -17.1268 15.389 -83.6137
rradius 96.2128
rwrist -47.1952
rhand -9.79822 -40.8266
rfingers 7.12502
rthumb 16.1779 -70.1715
lclavicle 2.16489e-014 9.54166e-015
lhumerus -0.750238 -53.0944 92.7749
lradius 80.1772
lwrist 25.7511
lhand -15.4099 -18.0981
lfingers 7.12502
lthumb 10.7694 11.6059
rfemur 7.07891 1.04777 14.913
rtibia 2.70347e-014
rfoot -14.5798 -8.63715
rtoes -3.40897
lfemur -2.93002 -5.41963 -13.2001
ltibia 20.0832
lfoot -21.8615 14.4004
ltoes -55.5446
127
root -0.703009 18.7121 5.5847 0.423886 -3.54837 -0.967064
lowerback 2.86313 -1.89816 0.821889
upperback -0.907342 -2.44197 2.49683
thorax -2.46201 -1.21243 2.22537
lowerneck -15.2153 -3.27213 -1.86964
upperneck 21.1508 -4.63472 2.17545
head 9.26296 -2.0849 0.480457
rclavicle -2.43954e-014 2.46493e-014
rhumerus -15.393 14.597 -83.143
rradius 96.2097
rwrist -47.3194
rhand -11.2493 -39.1246
rfingers 7.12502
rthumb 14.7803 -68.5776
lclavicle -2.43954e-014 2.46493e-014
lhumerus 2.34006 -53.1301 90.6228
lradius 79.5556
lwrist 24.919
lhand -15.0278 -18.9904
lfingers 7.12502
lthumb 11.1379 10.694
rfemur 7.02249 1.25876 14.7307
rtibia -1.59028e-014
rfoot -14.5766 -8.62604
rtoes -3.25286
lfemur -2.86807 -5.22186 -13.378
ltibia 19.9934
lfoot -21.8867 14.3556
ltoes -55.3543
